<svg xmlns="http://www.w3.org/2000/svg" width="76.924" height="12.011" viewBox="0 0 76.924 12.011">
  <g id="Logo" transform="translate(18.261 1.536)">
    <path id="Trazado_3" data-name="Trazado 3" d="M327.453-702.747a.408.408,0,0,1-.11-.3v-8.318a.376.376,0,0,1,.122-.283.424.424,0,0,1,.3-.116h3.009a3.219,3.219,0,0,1,2.192.682,2.426,2.426,0,0,1,.778,1.928,2.451,2.451,0,0,1-.785,1.947,3.2,3.2,0,0,1-2.185.688H328.14v3.471a.407.407,0,0,1-.109.3.392.392,0,0,1-.29.109.391.391,0,0,1-.289-.109m3.272-4.455q2.224,0,2.224-1.954,0-1.928-2.224-1.928H328.14v3.883Z" transform="translate(-327.343 711.766)" fill="#fff"/>
    <path id="Trazado_4" data-name="Trazado 4" d="M383.695-693.639a.3.3,0,0,1,.1.257q0,.322-.386.36l-.386.038a1.868,1.868,0,0,0-1.356.656,2.085,2.085,0,0,0-.443,1.325v3.329a.4.4,0,0,1-.1.3.383.383,0,0,1-.283.1.4.4,0,0,1-.289-.1.387.387,0,0,1-.11-.3V-693.3a.388.388,0,0,1,.11-.3.407.407,0,0,1,.289-.1.37.37,0,0,1,.27.1.385.385,0,0,1,.1.283v.836a2.152,2.152,0,0,1,1.954-1.208l.18-.013a.544.544,0,0,1,.347.064" transform="translate(-372.51 696.403)" fill="#fff"/>
    <path id="Trazado_5" data-name="Trazado 5" d="M408.574-709.94a.526.526,0,0,1-.161-.4.541.541,0,0,1,.161-.411.576.576,0,0,1,.417-.154.579.579,0,0,1,.418.154.543.543,0,0,1,.161.411.528.528,0,0,1-.161.4.58.58,0,0,1-.418.154.578.578,0,0,1-.417-.154m.128,7.933a.388.388,0,0,1-.109-.3v-5.631a.387.387,0,0,1,.109-.3.4.4,0,0,1,.289-.1.384.384,0,0,1,.283.1.4.4,0,0,1,.1.3v5.631a.4.4,0,0,1-.1.3.384.384,0,0,1-.283.1.4.4,0,0,1-.289-.1" transform="translate(-396.302 711.033)" fill="#fff"/>
    <path id="Trazado_6" data-name="Trazado 6" d="M437.529-691.451v3.638a.4.4,0,0,1-.1.289.37.37,0,0,1-.283.109.39.39,0,0,1-.289-.109.389.389,0,0,1-.109-.289V-691.4a2.182,2.182,0,0,0-.334-1.357,1.286,1.286,0,0,0-1.067-.417,1.679,1.679,0,0,0-1.331.565,2.224,2.224,0,0,0-.5,1.517v3.279a.4.4,0,0,1-.1.289.369.369,0,0,1-.283.109.389.389,0,0,1-.289-.109.388.388,0,0,1-.109-.289V-691.4a2.184,2.184,0,0,0-.334-1.357,1.286,1.286,0,0,0-1.067-.417,1.68,1.68,0,0,0-1.331.565,2.224,2.224,0,0,0-.495,1.517v3.279a.405.405,0,0,1-.1.289.369.369,0,0,1-.283.109.389.389,0,0,1-.289-.109.389.389,0,0,1-.109-.289v-5.631a.386.386,0,0,1,.109-.3.4.4,0,0,1,.289-.1.359.359,0,0,1,.276.1.4.4,0,0,1,.1.283v.771a1.956,1.956,0,0,1,.778-.88,2.257,2.257,0,0,1,1.176-.3,1.82,1.82,0,0,1,1.916,1.235,2.029,2.029,0,0,1,.823-.906,2.448,2.448,0,0,1,1.273-.328q2.069,0,2.07,2.417" transform="translate(-413.577 696.542)" fill="#fff"/>
    <path id="Trazado_7" data-name="Trazado 7" d="M503.984-688.718a.335.335,0,0,1,.083.225q0,.283-.437.553a3.749,3.749,0,0,1-1.954.553,2.961,2.961,0,0,1-2.249-.862,3.282,3.282,0,0,1-.823-2.366,3.794,3.794,0,0,1,.366-1.7A2.727,2.727,0,0,1,500-693.462a2.862,2.862,0,0,1,1.523-.405,2.442,2.442,0,0,1,1.91.778,3.083,3.083,0,0,1,.7,2.14.484.484,0,0,1-.1.341.442.442,0,0,1-.334.109h-4.281a2.673,2.673,0,0,0,.617,1.8,2.129,2.129,0,0,0,1.633.617,2.53,2.53,0,0,0,.926-.148,6.053,6.053,0,0,0,.8-.392.917.917,0,0,1,.4-.193.257.257,0,0,1,.2.1m-3.9-3.94a2.6,2.6,0,0,0-.643,1.581h3.973a2.436,2.436,0,0,0-.514-1.588,1.73,1.73,0,0,0-1.376-.559,1.9,1.9,0,0,0-1.44.566" transform="translate(-473.019 696.541)" fill="#fff"/>
    <path id="Trazado_8" data-name="Trazado 8" d="M541.967-702.753a.431.431,0,0,1-.1-.3v-8.022h-2.97a.369.369,0,0,1-.263-.091.334.334,0,0,1-.1-.257.335.335,0,0,1,.1-.257.371.371,0,0,1,.263-.09h6.711a.362.362,0,0,1,.257.1.33.33,0,0,1,.1.25.33.33,0,0,1-.1.251.362.362,0,0,1-.257.1h-2.957v8.022a.414.414,0,0,1-.109.3.38.38,0,0,1-.289.115.36.36,0,0,1-.283-.115" transform="translate(-506.985 711.766)" fill="#fff"/>
    <path id="Trazado_9" data-name="Trazado 9" d="M593-709.94a.526.526,0,0,1-.161-.4.541.541,0,0,1,.161-.411.576.576,0,0,1,.417-.154.578.578,0,0,1,.418.154.542.542,0,0,1,.161.411.527.527,0,0,1-.161.4.58.58,0,0,1-.418.154.578.578,0,0,1-.417-.154m.128,7.933a.387.387,0,0,1-.109-.3v-5.631a.386.386,0,0,1,.109-.3.4.4,0,0,1,.289-.1.384.384,0,0,1,.283.1.4.4,0,0,1,.1.3v5.631a.4.4,0,0,1-.1.3.384.384,0,0,1-.283.1.4.4,0,0,1-.289-.1" transform="translate(-553.175 711.033)" fill="#fff"/>
    <path id="Trazado_10" data-name="Trazado 10" d="M621.953-691.451v3.638a.4.4,0,0,1-.1.289.371.371,0,0,1-.283.109.39.39,0,0,1-.289-.109.388.388,0,0,1-.109-.289V-691.4a2.182,2.182,0,0,0-.334-1.357,1.287,1.287,0,0,0-1.067-.417,1.679,1.679,0,0,0-1.331.565,2.224,2.224,0,0,0-.495,1.517v3.279a.4.4,0,0,1-.1.289.369.369,0,0,1-.283.109.389.389,0,0,1-.289-.109.388.388,0,0,1-.109-.289V-691.4a2.183,2.183,0,0,0-.334-1.357,1.286,1.286,0,0,0-1.067-.417,1.68,1.68,0,0,0-1.331.565,2.224,2.224,0,0,0-.495,1.517v3.279a.4.4,0,0,1-.1.289.369.369,0,0,1-.283.109.389.389,0,0,1-.289-.109.388.388,0,0,1-.109-.289v-5.631a.386.386,0,0,1,.109-.3.4.4,0,0,1,.289-.1.36.36,0,0,1,.276.1.4.4,0,0,1,.1.283v.771a1.955,1.955,0,0,1,.778-.88,2.256,2.256,0,0,1,1.176-.3,1.821,1.821,0,0,1,1.916,1.235,2.029,2.029,0,0,1,.823-.906,2.449,2.449,0,0,1,1.273-.328q2.07,0,2.07,2.417" transform="translate(-570.45 696.542)" fill="#fff"/>
    <path id="Trazado_11" data-name="Trazado 11" d="M688.4-688.718a.335.335,0,0,1,.083.225q0,.283-.437.553a3.751,3.751,0,0,1-1.955.553,2.962,2.962,0,0,1-2.25-.862,3.283,3.283,0,0,1-.823-2.366,3.793,3.793,0,0,1,.367-1.7,2.723,2.723,0,0,1,1.029-1.144,2.86,2.86,0,0,1,1.523-.405,2.442,2.442,0,0,1,1.909.778,3.083,3.083,0,0,1,.7,2.14.485.485,0,0,1-.1.341.443.443,0,0,1-.335.109h-4.281a2.673,2.673,0,0,0,.617,1.8,2.131,2.131,0,0,0,1.633.617,2.535,2.535,0,0,0,.926-.148,6.121,6.121,0,0,0,.8-.392.913.913,0,0,1,.4-.193.256.256,0,0,1,.2.1m-3.9-3.94a2.6,2.6,0,0,0-.643,1.581h3.973a2.437,2.437,0,0,0-.514-1.588,1.73,1.73,0,0,0-1.376-.559,1.9,1.9,0,0,0-1.44.566" transform="translate(-629.889 696.541)" fill="#fff"/>
    <path id="Trazado_1" data-name="Trazado 1" d="M983.991-1153.35H979.78a.171.171,0,0,0-.134.064l-1.817,2.295-2.077-2.873a.171.171,0,0,0-.139-.071H971.4a.171.171,0,0,0-.152.093.171.171,0,0,0,.013.179l4.211,5.823a.172.172,0,0,0,.139.071h4.236a.171.171,0,0,0,.128-.064l4.148-5.239a.17.17,0,0,0,.02-.181A.173.173,0,0,0,983.991-1153.35Zm-8.465-.242,2.083,2.88-1.98,2.5-3.891-5.381Zm.461,5.48,1.831-2.312,1.672,2.312Zm7.651-4.9-3.8,4.8-1.8-2.491,1.825-2.305Z" transform="translate(-989.491 1158.243)" fill="#2ed1d1"/>
    <path id="Trazado_2" data-name="Trazado 2" d="M986.164-1252.116l-4.182-5.783a.171.171,0,0,0-.138-.071h-4.205l-.009,0a.181.181,0,0,0-.05.018.143.143,0,0,0-.023.016.137.137,0,0,0-.028.026l-4.148,5.239a.171.171,0,0,0-.02.181.173.173,0,0,0,.154.1h4.211a.169.169,0,0,0,.134-.065l1.806-2.281,2.039,2.82a.172.172,0,0,0,.138.071h4.182a.171.171,0,0,0,.152-.092A.17.17,0,0,0,986.164-1252.116Zm-12.3-.615,3.787-4.784,1.8,2.491-1.815,2.292Zm8.063.545-2.044-2.827,1.965-2.483,3.84,5.31Zm-.412-5.441-1.841,2.325L978-1257.628Z" transform="translate(-991.485 1256.434)" fill="#2ed1d1"/>
  </g>
</svg>
